<svg width="15" height="15" viewBox="0 0 15 15" fill="none" xmlns="http://www.w3.org/2000/svg">
<path d="M5.32201 0.245061C5.18383 0.107364 4.97826 0.0636632 4.79516 0.131289C1.98681 1.17793 0.100098 3.89501 0.100098 6.89285C0.100098 10.8668 3.33519 14.1 7.3115 14.1C10.3105 14.1 13.0261 12.211 14.0688 9.39972C14.1369 9.21637 14.0918 9.01006 13.9533 8.87188C13.8147 8.73345 13.6079 8.68902 13.4253 8.75738C12.7373 9.01446 12.011 9.14459 11.2671 9.14459C7.84202 9.14459 5.05541 6.35793 5.05541 2.93284C5.05541 2.1965 5.18456 1.4692 5.43944 0.771192C5.50633 0.588085 5.46043 0.382517 5.32201 0.245061ZM11.2671 10.1446C11.7458 10.1446 12.2185 10.098 12.6809 10.0057C11.584 11.8907 9.53855 13.1 7.31151 13.1C3.88647 13.1 1.1001 10.3155 1.1001 6.89286C1.1001 4.66529 2.30933 2.61766 4.19433 1.51828C4.10205 1.98361 4.05542 2.45652 4.05542 2.93285C4.05542 6.90946 7.29051 10.1446 11.2671 10.1446Z" fill="#8D8C8C" stroke="white" stroke-width="0.2"/>
</svg>
