<svg width="19" height="19" viewBox="0 0 19 19" fill="none" xmlns="http://www.w3.org/2000/svg">
<path d="M9.24979 15.6786C9.07929 15.6786 8.91578 15.7463 8.79522 15.8669C8.67466 15.9874 8.60693 16.1509 8.60693 16.3214V17.6072C8.60693 17.7777 8.67466 17.9412 8.79522 18.0617C8.91578 18.1823 9.07929 18.25 9.24979 18.25C9.42029 18.25 9.5838 18.1823 9.70436 18.0617C9.82492 17.9412 9.89265 17.7777 9.89265 17.6072V16.3214C9.89265 16.1509 9.82492 15.9874 9.70436 15.8669C9.5838 15.7463 9.42029 15.6786 9.24979 15.6786Z" fill="black" stroke="white" stroke-width="0.5"/>
<path d="M9.24979 2.82143C9.42029 2.82143 9.5838 2.7537 9.70436 2.63314C9.82492 2.51258 9.89265 2.34907 9.89265 2.17857V0.892857C9.89265 0.722361 9.82492 0.558848 9.70436 0.438288C9.5838 0.317729 9.42029 0.25 9.24979 0.25C9.07929 0.25 8.91578 0.317729 8.79522 0.438288C8.67466 0.558848 8.60693 0.722361 8.60693 0.892857V2.17857C8.60693 2.34907 8.67466 2.51258 8.79522 2.63314C8.91578 2.7537 9.07929 2.82143 9.24979 2.82143Z" fill="black" stroke="white" stroke-width="0.5"/>
<path d="M3.79185 13.7949L2.88542 14.7078C2.76569 14.8282 2.69849 14.9911 2.69849 15.161C2.69849 15.3308 2.76569 15.4937 2.88542 15.6142C2.94549 15.6738 3.01673 15.7209 3.09506 15.7529C3.17338 15.7849 3.25725 15.8011 3.34185 15.8006C3.5105 15.7999 3.67211 15.7329 3.79185 15.6142L4.70471 14.7078C4.82576 14.5867 4.89377 14.4225 4.89377 14.2513C4.89377 14.0801 4.82576 13.9159 4.70471 13.7949C4.58366 13.6738 4.41948 13.6058 4.24828 13.6058C4.07709 13.6058 3.91291 13.6738 3.79185 13.7949Z" fill="black" stroke="white" stroke-width="0.5"/>
<path d="M14.2508 4.89143C14.3354 4.89192 14.4193 4.8757 14.4976 4.84371C14.576 4.81172 14.6472 4.76458 14.7073 4.705L15.6137 3.79215C15.681 3.73452 15.7356 3.6636 15.7742 3.58384C15.8128 3.50409 15.8345 3.41721 15.8379 3.32868C15.8413 3.24015 15.8264 3.15186 15.7941 3.06937C15.7618 2.98687 15.7128 2.91195 15.6501 2.8493C15.5875 2.78665 15.5125 2.73763 15.43 2.70531C15.3475 2.67299 15.2593 2.65807 15.1707 2.66149C15.0822 2.66491 14.9953 2.68659 14.9156 2.72518C14.8358 2.76377 14.7649 2.81842 14.7073 2.88572L13.7944 3.79215C13.7341 3.85191 13.6863 3.92301 13.6537 4.00135C13.6211 4.07968 13.6042 4.16371 13.6042 4.24857C13.6042 4.33344 13.6211 4.41746 13.6537 4.4958C13.6863 4.57414 13.7341 4.64524 13.7944 4.705C13.8545 4.76458 13.9257 4.81172 14.004 4.84371C14.0824 4.8757 14.1662 4.89192 14.2508 4.89143Z" fill="black" stroke="white" stroke-width="0.5"/>
<path d="M2.17857 8.60706H0.892857C0.722361 8.60706 0.558848 8.67479 0.438288 8.79534C0.317729 8.9159 0.25 9.07942 0.25 9.24991C0.25 9.42041 0.317729 9.58392 0.438288 9.70448C0.558848 9.82504 0.722361 9.89277 0.892857 9.89277H2.17857C2.34907 9.89277 2.51258 9.82504 2.63314 9.70448C2.7537 9.58392 2.82143 9.42041 2.82143 9.24991C2.82143 9.07942 2.7537 8.9159 2.63314 8.79534C2.51258 8.67479 2.34907 8.60706 2.17857 8.60706Z" fill="black" stroke="white" stroke-width="0.5"/>
<path d="M17.607 8.60706H16.3213C16.1508 8.60706 15.9873 8.67479 15.8668 8.79534C15.7462 8.9159 15.6785 9.07942 15.6785 9.24991C15.6785 9.42041 15.7462 9.58392 15.8668 9.70448C15.9873 9.82504 16.1508 9.89277 16.3213 9.89277H17.607C17.7775 9.89277 17.941 9.82504 18.0616 9.70448C18.1822 9.58392 18.2499 9.42041 18.2499 9.24991C18.2499 9.07942 18.1822 8.9159 18.0616 8.79534C17.941 8.67479 17.7775 8.60706 17.607 8.60706Z" fill="black" stroke="white" stroke-width="0.5"/>
<path d="M3.7927 4.70507C3.85277 4.76465 3.92401 4.81178 4.00233 4.84378C4.08065 4.87577 4.16452 4.89198 4.24913 4.8915C4.33373 4.89198 4.4176 4.87577 4.49592 4.84378C4.57425 4.81178 4.64549 4.76465 4.70555 4.70507C4.76581 4.6453 4.81363 4.5742 4.84627 4.49587C4.87891 4.41753 4.89571 4.3335 4.89571 4.24864C4.89571 4.16377 4.87891 4.07975 4.84627 4.00141C4.81363 3.92307 4.76581 3.85197 4.70555 3.79221L3.7927 2.88578C3.66972 2.78046 3.51153 2.72543 3.34973 2.73168C3.18794 2.73793 3.03447 2.805 2.91998 2.91949C2.80549 3.03398 2.73842 3.18745 2.73217 3.34925C2.72592 3.51104 2.78095 3.66923 2.88627 3.79221L3.7927 4.70507Z" fill="black" stroke="white" stroke-width="0.5"/>
<path d="M14.7071 13.7949C14.5861 13.6738 14.4219 13.6058 14.2507 13.6058C14.0795 13.6058 13.9153 13.6738 13.7943 13.7949C13.6732 13.9159 13.6052 14.0801 13.6052 14.2513C13.6052 14.4225 13.6732 14.5867 13.7943 14.7078L14.7071 15.6142C14.8269 15.7329 14.9885 15.7999 15.1571 15.8006C15.2417 15.8011 15.3256 15.7849 15.4039 15.7529C15.4823 15.7209 15.5535 15.6738 15.6136 15.6142C15.7333 15.4937 15.8005 15.3308 15.8005 15.161C15.8005 14.9911 15.7333 14.8282 15.6136 14.7078L14.7071 13.7949Z" fill="black" stroke="white" stroke-width="0.5"/>
<path d="M9.24979 4.10706C8.23263 4.10706 7.23831 4.40868 6.39257 4.97378C5.54684 5.53889 4.88766 6.34209 4.49841 7.28183C4.10916 8.22156 4.00732 9.25562 4.20575 10.2532C4.40419 11.2509 4.894 12.1672 5.61324 12.8865C6.33248 13.6057 7.24885 14.0955 8.24647 14.294C9.24409 14.4924 10.2781 14.3905 11.2179 14.0013C12.1576 13.612 12.9608 12.9529 13.5259 12.1071C14.091 11.2614 14.3926 10.2671 14.3926 9.24991C14.3926 7.88594 13.8508 6.57784 12.8863 5.61336C11.9219 4.64889 10.6138 4.10706 9.24979 4.10706ZM9.24979 13.1071C8.48692 13.1071 7.74118 12.8808 7.10688 12.457C6.47257 12.0332 5.9782 11.4308 5.68626 10.726C5.39432 10.0212 5.31794 9.24563 5.46676 8.49742C5.61559 7.74921 5.98295 7.06193 6.52238 6.5225C7.06181 5.98307 7.74909 5.61571 8.4973 5.46688C9.24551 5.31806 10.0211 5.39444 10.7259 5.68638C11.4307 5.97832 12.0331 6.47269 12.4569 7.107C12.8807 7.7413 13.1069 8.48704 13.1069 9.24991C13.1069 10.2729 12.7006 11.254 11.9772 11.9773C11.2538 12.7007 10.2728 13.1071 9.24979 13.1071Z" fill="black" stroke="white" stroke-width="0.5"/>
</svg>
