<svg width="24" height="24" viewBox="0 0 24 24" fill="none" xmlns="http://www.w3.org/2000/svg">
<rect x="0.5" y="0.5" width="23" height="23" stroke="white"/>
<path d="M8.4035 16.5534C7.32086 16.3029 6.58718 16.4997 5.6835 15.7392C4.67244 14.8803 4.6635 13.4397 4.67244 12.2139C4.6635 10.9882 4.67244 9.54763 5.6835 8.68868C6.69455 7.82974 7.49981 8.17868 8.81507 7.74921C10.1214 7.31973 11.9556 4.65342 13.9867 5.85237C14.8098 6.43395 15.293 7.38237 15.4898 9.4671" stroke="black" stroke-width="1.5" stroke-linecap="round" stroke-linejoin="round"/>
<path d="M15.5793 13.6721C15.463 16.6784 14.944 17.8863 13.9867 18.5663C12.9488 19.1837 11.9556 18.7811 11.0698 18.1816" stroke="black" stroke-width="1.5" stroke-linecap="round" stroke-linejoin="round"/>
<path d="M20.2854 4.67102L4.94067 20.0158" stroke="black" stroke-width="1.5" stroke-linecap="round" stroke-linejoin="round"/>
</svg>
